<svg xmlns="http://www.w3.org/2000/svg" viewBox="0 0 600 400" width="100%" height="100%">
  <rect width="600" height="400" rx="15" fill="#1e293b" stroke="#334155" stroke-width="2"/>
  <rect x="20" y="20" width="560" height="360" rx="10" fill="#0f172a" stroke="#475569" stroke-width="1"/>
  
  <!-- Header -->
  <rect x="20" y="20" width="560" height="60" rx="10" fill="#1e3a8a"/>
  <text x="300" y="55" font-family="system-ui, sans-serif" font-size="18" font-weight="bold" fill="#ffffff" text-anchor="middle">
    REPÚBLICA FEDERATIVA DO BRASIL
  </text>
  <text x="300" y="75" font-family="system-ui, sans-serif" font-size="10" fill="#93c5fd" text-anchor="middle">
    MINISTÉRIO DA JUSTIÇA | CARTEIRA DE IDENTIDADE MOCK
  </text>

  <!-- Photo box -->
  <rect x="50" y="110" width="130" height="170" rx="8" fill="#1e293b" stroke="#334155" stroke-width="2"/>
  <!-- Avatar icon -->
  <circle cx="115" cy="170" r="30" fill="#475569"/>
  <path d="M75,250 C75,210 155,210 155,250 Z" fill="#475569"/>
  
  <!-- Thumbprint box -->
  <rect x="200" y="110" width="110" height="170" rx="8" fill="#1e293b" stroke="#334155" stroke-width="2"/>
  <!-- Fingerprint lines -->
  <path d="M255,140 Q235,170 255,200 T255,250" stroke="#475569" stroke-width="3" fill="none"/>
  <path d="M245,150 Q225,180 245,210 T245,240" stroke="#475569" stroke-width="2" fill="none"/>
  <path d="M265,150 Q245,180 265,210 T265,240" stroke="#475569" stroke-width="2" fill="none"/>
  <text x="255" y="295" font-family="system-ui, sans-serif" font-size="9" fill="#94a3b8" text-anchor="middle">POLEGAR DIREITO</text>

  <!-- Details -->
  <text x="340" y="130" font-family="system-ui, sans-serif" font-size="11" font-weight="bold" fill="#3b82f6">REGISTRO GERAL</text>
  <text x="340" y="150" font-family="system-ui, sans-serif" font-size="16" font-weight="bold" fill="#ffffff">11.638.880-6</text>
  
  <text x="340" y="190" font-family="system-ui, sans-serif" font-size="11" font-weight="bold" fill="#3b82f6">NOME</text>
  <text x="340" y="210" font-family="system-ui, sans-serif" font-size="15" font-weight="bold" fill="#ffffff">ARTHUR RAUL</text>
  
  <text x="340" y="250" font-family="system-ui, sans-serif" font-size="11" font-weight="bold" fill="#3b82f6">DOC. ORIGEM</text>
  <text x="340" y="270" font-family="system-ui, sans-serif" font-size="13" fill="#cbd5e1">IGLOO DIGITAL TENANT SEED</text>
  
  <text x="50" y="340" font-family="system-ui, sans-serif" font-size="11" font-weight="bold" fill="#e2e8f0">STATUS: DOCUMENTO DE SIMULAÇÃO</text>
</svg>
